<?xml version="1.0" encoding="UTF-8" standalone="no"?>
<!-- Created with Inkscape (http://www.inkscape.org/) -->

<svg
   xmlns:dc="http://purl.org/dc/elements/1.1/"
   xmlns:cc="http://creativecommons.org/ns#"
   xmlns:rdf="http://www.w3.org/1999/02/22-rdf-syntax-ns#"
   xmlns:svg="http://www.w3.org/2000/svg"
   xmlns="http://www.w3.org/2000/svg"
   xmlns:sodipodi="http://sodipodi.sourceforge.net/DTD/sodipodi-0.dtd"
   xmlns:inkscape="http://www.inkscape.org/namespaces/inkscape"
   width="100mm"
   height="100mm"
   viewBox="0 0 100 100"
   version="1.1"
   id="svg8"
   sodipodi:docname="icon.svg"
   inkscape:export-filename="D:\aglio\apps\react\public\favicon-16x16.png"
   inkscape:export-xdpi="4.0599999"
   inkscape:export-ydpi="4.0599999"
   inkscape:version="0.92.4 (5da689c313, 2019-01-14)">
  <defs
     id="defs2" />
  <sodipodi:namedview
     id="base"
     pagecolor="#ffffff"
     bordercolor="#666666"
     borderopacity="1.0"
     inkscape:pageopacity="0.0"
     inkscape:pageshadow="2"
     inkscape:zoom="1.979899"
     inkscape:cx="74.433898"
     inkscape:cy="263.49713"
     inkscape:document-units="mm"
     inkscape:current-layer="layer1"
     showgrid="false"
     inkscape:window-width="3440"
     inkscape:window-height="1369"
     inkscape:window-x="-8"
     inkscape:window-y="-8"
     inkscape:window-maximized="1"
     showborder="true"
     inkscape:showpageshadow="false"
     inkscape:pagecheckerboard="true" />
  <metadata
     id="metadata5">
    <rdf:RDF>
      <cc:Work
         rdf:about="">
        <dc:format>image/svg+xml</dc:format>
        <dc:type
           rdf:resource="http://purl.org/dc/dcmitype/StillImage" />
        <dc:title></dc:title>
      </cc:Work>
    </rdf:RDF>
  </metadata>
  <g
     inkscape:label="Layer 1"
     inkscape:groupmode="layer"
     id="layer1"
     transform="translate(0,-197)">
    <path
       style="fill:#f9e093;fill-opacity:1;stroke:#000000;stroke-width:1.20963848;stroke-linecap:butt;stroke-linejoin:miter;stroke-miterlimit:4;stroke-dasharray:none;stroke-opacity:1"
       d="m 58.885765,204.70516 v 1e-5 c 11.508115,-1.24068 33.690053,6.2118 35.624862,23.43322 1.93481,17.22142 -34.432028,60.40096 -49.563984,62.86902 -15.131955,2.46807 -34.425279,-9.84346 -36.3289155,-24.6629 -0.4143263,-3.22546 -1.6554133,-13.23178 6.5135355,-11.48936"
       id="path4518"
       inkscape:connector-curvature="0"
       sodipodi:nodetypes="cczzsc" />
    <path
       style="fill:#f9e093;fill-opacity:1;stroke:#000000;stroke-width:1.20963848;stroke-linecap:round;stroke-linejoin:miter;stroke-miterlimit:4;stroke-dasharray:none;stroke-opacity:1"
       d="M 53.973738,277.76203 C 29.703583,273.3237 14.241008,256.18888 13.24054,251.14857 c -0.458425,-2.30951 1.101697,-5.28282 1.101697,-5.28282 0,0 5.498444,-2.1445 8.118292,-1.40423"
       id="path4626"
       inkscape:connector-curvature="0"
       sodipodi:nodetypes="cscc" />
    <path
       style="fill:#f9e093;fill-opacity:1;stroke:#000000;stroke-width:1.20963848;stroke-linecap:round;stroke-linejoin:miter;stroke-miterlimit:4;stroke-dasharray:none;stroke-opacity:1"
       d="m 61.355428,268.98188 c -19.289889,-2.16222 -36.692689,-19.16174 -38.894899,-24.52036 -1.339056,-3.2583 -0.146229,-7.98415 -0.146229,-7.98415 0,0 4.102328,-2.02457 7.50655,-1.49609"
       id="path4628"
       inkscape:connector-curvature="0"
       sodipodi:nodetypes="cscc" />
    <path
       style="fill:#f9e093;fill-opacity:1;stroke:#000000;stroke-width:1.20963848;stroke-linecap:round;stroke-linejoin:miter;stroke-miterlimit:4;stroke-dasharray:none;stroke-opacity:1"
       d="m 69.188429,260.42828 c -19.154837,-3.73037 -36.314944,-19.97418 -39.367579,-25.447 -1.724461,-3.09166 0.03351,-8.14789 0.03351,-8.14789 0,0 4.851666,-2.32748 8.630596,-1.74084"
       id="path4628-6"
       inkscape:connector-curvature="0"
       sodipodi:nodetypes="cscc" />
    <path
       style="fill:#f9e093;fill-opacity:1;stroke:#000000;stroke-width:1.20963848;stroke-linecap:round;stroke-linejoin:miter;stroke-miterlimit:4;stroke-dasharray:none;stroke-opacity:1"
       d="m 78.730372,248.25858 c -14.360501,-0.52277 -28.653474,-9.85431 -40.245415,-23.16603 -2.189753,-3.07633 0.05187,-8.17083 0.05187,-8.17083 0,0 5.778883,-1.30492 9.747373,0.11489"
       id="path4628-6-7"
       inkscape:connector-curvature="0"
       sodipodi:nodetypes="cccc" />
    <path
       style="fill:#f9e093;fill-opacity:1;stroke:#000000;stroke-width:1.20963848;stroke-linecap:round;stroke-linejoin:miter;stroke-miterlimit:4;stroke-dasharray:none;stroke-opacity:1"
       d="m 87.449203,238.34937 c -7.270285,0.0475 -27.57306,-8.00105 -39.165001,-21.31276 -4.086376,-5.74087 1.578554,-11.68392 10.601563,-12.33144"
       id="path4628-6-7-8"
       inkscape:connector-curvature="0"
       sodipodi:nodetypes="ccc" />
    <path
       style="fill:#fabf52;fill-opacity:1;stroke:none;stroke-width:0.26939026px;stroke-linecap:butt;stroke-linejoin:miter;stroke-opacity:1"
       d="m 14.771968,246.27873 c 19.827651,20.24149 38.898581,24.6376 46.583462,22.70315 -19.470723,-2.34235 -35.111742,-17.92845 -38.894901,-24.52036 -1.136632,-0.43978 -5.367938,1.08427 -5.367938,1.08427"
       id="path4675"
       inkscape:connector-curvature="0"
       sodipodi:nodetypes="cccc" />
    <path
       style="fill:#fabf52;fill-opacity:1;stroke:none;stroke-width:0.27029303px;stroke-linecap:butt;stroke-linejoin:miter;stroke-opacity:1"
       d="m 22.840317,236.99703 c 19.870322,20.33362 38.646692,25.37451 46.348112,23.43125 -18.774298,-3.60253 -35.576279,-18.82506 -39.367579,-25.447 -1.139079,-0.44175 -4.520675,1.00179 -4.520675,1.00179"
       id="path4675-8"
       inkscape:connector-curvature="0"
       sodipodi:nodetypes="cccc" />
    <path
       style="fill:#fabf52;fill-opacity:1;stroke:none;stroke-width:0.26888642px;stroke-linecap:butt;stroke-linejoin:miter;stroke-opacity:1"
       d="m 30.512387,227.16669 c 19.838794,20.15452 40.528785,23.01802 48.217986,21.09189 -20.419866,-1.30021 -34.851789,-16.74004 -40.245417,-23.16603 -1.137271,-0.43787 -4.913485,1.06911 -4.913485,1.06911"
       id="path4675-8-1"
       inkscape:connector-curvature="0"
       sodipodi:nodetypes="cccc" />
    <path
       style="fill:#fabf52;fill-opacity:1;stroke:none;stroke-width:0.27060908px;stroke-linecap:butt;stroke-linejoin:miter;stroke-opacity:1"
       d="m 39.007789,217.43933 c 20.070191,20.17825 40.662529,22.83845 48.441415,20.91004 -19.437713,-3.64388 -33.572875,-14.9481 -39.165005,-21.31276 -1.150537,-0.43839 -5.435889,-0.0524 -5.435889,-0.0524"
       id="path4675-8-6"
       inkscape:connector-curvature="0"
       sodipodi:nodetypes="cccc" />
    <path
       style="fill:#fabf52;fill-opacity:1;stroke:none;stroke-width:0.27472118px;stroke-linecap:butt;stroke-linejoin:miter;stroke-opacity:1"
       d="m 9.3661958,257.62592 c -0.8001676,3.06644 -0.9661601,9.66605 1.2068052,14.79821 3.660234,8.64484 24.122804,26.38016 41.967599,15.05095 -13.173847,6.38452 -38.523722,-6.0867 -37.307264,-19.76433 0.976351,-10.97793 16.164189,10.05424 38.740402,10.05128 -19.534886,-2.81939 -35.028294,-16.10724 -38.842475,-22.90688 -1.145952,-0.45362 -4.100674,0.44656 -4.100674,0.44656"
       id="path4675-8-63"
       inkscape:connector-curvature="0"
       sodipodi:nodetypes="cscsccc" />
    <path
       style="fill:none;fill-opacity:1;stroke:#000000;stroke-width:1.20963848;stroke-linecap:butt;stroke-linejoin:miter;stroke-miterlimit:4;stroke-dasharray:none;stroke-opacity:1"
       d="m 58.885767,204.70516 v 1e-5 c 11.508113,-1.24068 33.690052,6.2118 35.624862,23.43322 1.93481,17.22142 -34.432028,60.40096 -49.563984,62.86902 -15.131956,2.46807 -34.42528,-9.84346 -36.3289168,-24.6629 -0.4143261,-3.22546 -1.6554136,-13.23178 6.5135358,-11.48936"
       id="path4518-5"
       inkscape:connector-curvature="0"
       sodipodi:nodetypes="cczzsc" />
    <path
       style="fill:none;fill-opacity:1;stroke:#000000;stroke-width:1.20963848;stroke-linecap:round;stroke-linejoin:miter;stroke-miterlimit:4;stroke-dasharray:none;stroke-opacity:1"
       d="M 53.973738,277.76203 C 29.703584,273.3237 14.241009,256.18888 13.240541,251.14857 c -0.458425,-2.30951 1.101697,-5.28282 1.101697,-5.28282 0,0 5.498443,-2.1445 8.118291,-1.40423"
       id="path4626-7"
       inkscape:connector-curvature="0"
       sodipodi:nodetypes="cscc" />
    <path
       style="fill:none;fill-opacity:1;stroke:#000000;stroke-width:1.20963848;stroke-linecap:round;stroke-linejoin:miter;stroke-miterlimit:4;stroke-dasharray:none;stroke-opacity:1"
       d="m 61.35543,268.98188 c -19.289889,-2.16222 -36.69269,-19.16174 -38.894901,-24.52036 -1.339055,-3.2583 -0.146228,-7.98415 -0.146228,-7.98415 0,0 4.102328,-2.02457 7.50655,-1.49609"
       id="path4628-7"
       inkscape:connector-curvature="0"
       sodipodi:nodetypes="cscc" />
    <path
       style="fill:none;fill-opacity:1;stroke:#000000;stroke-width:1.20963848;stroke-linecap:round;stroke-linejoin:miter;stroke-miterlimit:4;stroke-dasharray:none;stroke-opacity:1"
       d="m 69.188429,260.42828 c -19.154836,-3.73037 -36.314943,-19.97418 -39.367578,-25.447 -1.724461,-3.09166 0.03351,-8.14789 0.03351,-8.14789 0,0 4.851666,-2.32748 8.630595,-1.74084"
       id="path4628-6-5"
       inkscape:connector-curvature="0"
       sodipodi:nodetypes="cscc" />
    <path
       style="fill:none;fill-opacity:1;stroke:#000000;stroke-width:1.20963848;stroke-linecap:round;stroke-linejoin:miter;stroke-miterlimit:4;stroke-dasharray:none;stroke-opacity:1"
       d="m 78.730373,248.25858 c -14.3605,-0.52277 -28.653473,-9.85431 -40.245416,-23.16603 -2.189751,-3.07633 0.05187,-8.17083 0.05187,-8.17083 0,0 5.778881,-1.30492 9.747372,0.11489"
       id="path4628-6-7-84"
       inkscape:connector-curvature="0"
       sodipodi:nodetypes="cccc" />
    <path
       style="fill:none;fill-opacity:1;stroke:#000000;stroke-width:1.20963848;stroke-linecap:round;stroke-linejoin:miter;stroke-miterlimit:4;stroke-dasharray:none;stroke-opacity:1"
       d="m 87.449204,238.34937 c -7.270285,0.0475 -27.573059,-8.00105 -39.165002,-21.31276 -4.086375,-5.74087 1.578554,-11.68392 10.601565,-12.33144"
       id="path4628-6-7-8-4"
       inkscape:connector-curvature="0"
       sodipodi:nodetypes="ccc" />
  </g>
</svg>
